<?xml version="1.0" encoding="utf-8"?>
<!DOCTYPE svg PUBLIC "-//W3C//DTD SVG 1.1//EN" "http://www.w3.org/Graphics/SVG/1.1/DTD/svg11.dtd">
<svg version="1.1" xmlns="http://www.w3.org/2000/svg" viewBox="0 0 512 512" width="210" height="210">
    <g>
        <path d="M256.002,512C114.842,512,0,397.158,0,256S114.842,0,256.002,0C397.16,0,512,114.842,512,256 S397.16,512,256.002,512z" fill="#89C0C7"/>
        <g>
            <polygon fill="#FFFFFF" points="382.141,205.029 114.382,205.029 129.862,85.518 397.618,86.104"/>
            <polygon fill="#EBEBEB" points="126.915,312.712 394.671,312.712 382.449,203.692 114.692,203.692"/>
            <polygon fill="#FFFFFF" points="384.873,419.965 117.116,419.965 126.895,312.497 394.65,312.497"/>
            <polygon fill="#ED1C24" points="370.38,438.129 355.607,435.122 352.031,449.774 338.618,428.625 333.255,420.181 326.591,409.671 333.6,405.221 344.938,398.035 358.642,419.632"/>
            <polygon fill="#ED1C24" points="340.116,409.364 333.255,420.181 328.154,428.215 314.675,449.458 311.1,434.814 296.336,437.822 307.487,420.237 321.776,397.718 333.6,405.221"/>
            <path d="M358.642,419.632c-3.353,3.379-5.483,9.355-9.896,10.789c-3.053,0.996-6.591-0.558-10.127-1.796l-5.363-8.444l-5.101,8.034c-3.938,1.266-7.95,3.314-11.357,2.206 c-4.151-1.35-6.284-6.73-9.31-10.184l14.289-22.519l11.823,7.502l11.339-7.186L358.642,419.632z" fill="#231F20" opacity="0.2"/>
            <path d="M384.453,378.465c0,5.274-6.284,9.49-7.829,14.249c-1.603,4.932,0.948,12.025-2.038,16.131c-3.019,4.146-10.573,3.897-14.721,6.915c-4.104,2.987-6.188,10.266-11.118,11.867c-4.758,1.544-10.698-3.069-15.973-3.069 c-5.272,0-11.214,4.614-15.973,3.069c-4.933-1.602-7.015-8.88-11.118-11.867c-4.147-3.018-11.702-2.769-14.72-6.916     c-2.987-4.104-0.437-11.199-2.038-16.131c-1.544-4.758-7.827-8.974-7.827-14.248c0-5.273,6.283-9.489,7.829-14.248     c1.602-4.931-0.949-12.025,2.038-16.13c3.018-4.146,10.572-3.897,14.718-6.915c4.105-2.987,6.188-10.266,11.118-11.867     c4.759-1.546,10.7,3.069,15.973,3.069c5.274,0,11.215-4.614,15.975-3.069c4.931,1.602,7.011,8.88,11.116,11.868     c4.146,3.017,11.702,2.768,14.719,6.915c2.987,4.104,0.438,11.198,2.038,16.129C378.167,368.977,384.453,373.193,384.453,378.465z" fill="#EFC849"/>
            <circle cx="332.775" cy="378.465" fill="#49A15D" r="35.136"/>
            <polygon fill="#D2D7D8" points="368.1,159.553 140.597,159.553 138.479,168.24 365.981,168.24"/>
            <polygon fill="#D2D7D8" points="364.76,185.027 137.527,185.027 135.411,193.714 362.642,193.714"/>
            <polygon fill="#D2D7D8" points="271.335,327.116 144.32,327.116 142.202,335.804 269.473,335.804"/>
            <polygon fill="#D2D7D8" points="271.335,352.591 141.251,352.591 139.135,361.277 269.473,361.277"/>
            <polygon fill="#D2D7D8" points="371.251,133.264 143.747,133.264 141.629,141.951 369.133,141.951"/>
            <polygon fill="#D2D7D8" points="138.563,243.334 366.067,243.334 368.186,252.022 140.682,252.022"/>
            <polygon fill="#D2D7D8" points="140.973,268.809 368.204,268.809 370.322,277.496 143.091,277.496"/>
            <polygon fill="#D2D7D8" points="144.23,294.875 371.462,294.875 373.58,303.561 146.35,303.561"/>
            <polygon fill="#D2D7D8" points="135.411,217.045 362.915,217.045 365.033,225.733 137.529,225.733"/>
            <polygon fill="#D2D7D8" points="264.86,105.252 149.477,105.252 146.033,116.789 261.416,116.789"/>
            <polygon fill="#1B3C22" points="332.247,351.213 338.94,371.813 360.602,371.813 343.078,384.547 349.772,405.147 332.247,392.414 314.722,405.147 321.416,384.547 303.891,371.813 325.553,371.813"/>
        </g>
    </g>
</svg>