<?xml version="1.0" encoding="UTF-8" standalone="no"?>
<svg xmlns="http://www.w3.org/2000/svg" width="26" height="26" viewBox="0 0 26 26" version="1.1">
  <path style="fill:#aa3853" d="M 1,9 C 0.449,9 0,9.448 0,10 l 0,6 c 0,0.551 0.449,1 1,1 l 24,0 c 0.551,0 1,-0.449 1,-1 l 0,-6 C 26,9.448 25.551,9 25,9 z m 10,2 13,0 0,4 -13,0 z" />
  <path style="fill:#e39836" d="M 1,0 C 0.449,0 0,0.448 0,1 l 0,6 c 0,0.551 0.449,1 1,1 l 24,0 c 0.551,0 1,-0.449 1,-1 L 26,1 C 26,0.448 25.551,0 25,0 z m 15,2 8,0 0,4 -8,0 z" />
  <path style="fill:#488456" d="m 1,18 c -0.551,0 -1,0.448 -1,1 l 0,6 c 0,0.551 0.449,1 1,1 l 24,0 c 0.551,0 1,-0.449 1,-1 l 0,-6 c 0,-0.552 -0.449,-1 -1,-1 z m 20,2 3,0 0,4 -3,0 z" />
</svg>
