<?xml version="1.0" encoding="utf-8"?>
<svg xmlns="http://www.w3.org/2000/svg" viewBox="0 0 36 36">
<path d="M15.933 30.572c-.43-.435-.568-1.106-.294-1.692.35-.75 1.243-1.074 1.993-.724.036.018 4.847-7.496 4.847-7.496l6.02-1.6c-1 3-7.986 10.342-7.986 10.342-1.576 1.622-2.848 2.08-4.15 1.47-.167-.077-.31-.18-.43-.3zM25.06 7.284c.376-.674.92-1.208 1.548-1.596h.003c-.257-.18-.616-.38-1.112-.628-5.46-2.73-11.77-1.984-12.102-1.977-1.068.023-1.92.907-1.898 1.978.022 1.07.907 1.977 1.978 1.954.074 0 6.8-1.53 11.31.083.034.013.15.093.276.19z" fill="#b0bec5"/>
<path d="M7.804 15.917c-.117-.04-.234-.082-.35-.133-.71-.306-1.32-.738-1.82-1.25-.432-.44-.778-.94-1.03-1.475-.508.452-.88 1.063-1.002 1.786-.692 4.093 2.895 6.214 4.895 6.214l.087-.005c-.864-1.513-1.177-3.278-.78-5.138z" fill="#546e7a"/>
<path d="M26.12 22.708c-3.826 2.918-9.12 4.05-13.623 2.352-4.502-1.695-7.065-5.855-5.368-10.357 1.696-4.502 6.723-6.776 11.225-5.078.52.195 3.082 1.163 4.447 1.678.68.257 1.762-.183 2.04-.925 5.655-.317 9.697 2.96 1.277 12.33z" fill="#cfd8dc"/>
<path d="M35.217 13.852c-.76 2.324-5.364.566-7.68-.197-2.317-.763-3.58-3.265-2.82-5.59.76-2.326 3.255-3.593 5.57-2.83 2.317.762 6.304 4.406 4.93 8.616z" fill="#78909c"/>
<path d="M26.61 5.688l-.006.003c.658-.406 1.408-.64 2.195-.66-.18-.18-.567-.434-1.305-.97C22.567.46 15.96.053 15.627.02c-1.062-.104-2.014.67-2.12 1.735-.046.456.077.91.308 1.295 1.54-.11 6.93-.368 11.682 2.008.496.248.855.45 1.113.628z" fill="#78909c"/>
<path d="M33.497 10.06h-2c-1.334 0-2-2-2-2h2c1.334 0 2 2 2 2z" fill="#455a64"/>
<circle cx="31.497" cy="9.06" r="1"/>
<path d="M19.497 34.065l2 1.948h3v-.952s0-2-2-2l-3 1.006zM16.43 15.94c6.442 3.572 5.067 13.245-2.475 15.537 0 0 1.792-4.792-2.826-6.587-3.127-1.215-4.758-4.252-2.638-7.243 1.722-2.43 5.018-3.358 7.938-1.708z" fill="#90a4ae"/>
<path d="M21.497 36.06l1.045-.527c.574-.94 1.566-1.23.622-1.805l-5.94-3.774c-.945-.57 1.46-7.204 1.46-7.204l-4.73 8.73 7.543 4.58z" fill="#90a4ae"/>
<path d="M10.06 3.012H3.497l-1 2h7.007c.002-.73.204-1.41.556-2zm-.43 3H2.498l-1 2h9.37c-.59-.52-1.03-1.213-1.236-2zm-.473 3h-7.66l-1 2h6.5c.628-.762 1.353-1.437 2.16-2z" fill="#2196f3"/>
</svg>