<?xml version="1.0" encoding="utf-8"?>
<svg xmlns="http://www.w3.org/2000/svg" viewBox="0 0 44 44">
<path d="M36 18c0-7.7-6.3-14-14-14S8 10.3 8 18c0 5 2.6 9.3 6.5 11.8.9 1.1 1.5 2.5 1.5 3.9v.3h12v-.1c0-1.5.5-2.9 1.4-4C33.4 27.4 36 23 36 18z" fill="#fbc02d"/>
<path d="M24 42h-4c-2.2 0-4-1.8-4-4v-5h12v5c0 2.2-1.8 4-4 4" fill="#9fa8da"/>
<path d="M24.8 41.9c-.3 1.2-1.5 2.1-2.8 2.1-1.3 0-2.5-.9-2.8-2.1.2.1.5.1.8.1h4c.3 0 .6 0 .8-.1zM28 38l-11.6 1.6c.3.7.9 1.4 1.6 1.8l9.4-1.3c.4-.6.6-1.3.6-2.1m-12-2.3v2L28 36v-2l-12 1.7z" fill="#5c6bc0"/>
<path d="M28.6 16.2l-3-2c-.3-.2-.8-.2-1.1 0L22 15.8l-2.4-1.6c-.3-.2-.8-.2-1.1 0l-3 2c-.2.2-.4.4-.4.7 0 .3 0 .6.2.8l3.8 4.7V33h2V22c0-.2-.1-.4-.2-.6l-3.3-4.1 1.5-1 2.4 1.6c.3.2.8.2 1.1 0l2.4-1.6 1.5 1-3.3 4.1c-.1.2-.2.4-.2.6v11h2V22.4l3.8-4.7c.2-.2.3-.5.2-.8-.1-.3-.2-.6-.4-.7z" fill="#fff59d"/>
<path d="M8.9 30.4c-.4-.4-.4-1 0-1.4.4-.4 1-.4 1.4 0 .4.4.4 1-.1 1.4-.2.2-.4.3-.7.3-.1 0-.4-.1-.6-.3zm24.8 0c-.4-.4-.4-1 0-1.4.4-.4 1-.4 1.4-.1.4.4.4 1 0 1.4-.2.2-.5.3-.7.3-.3.1-.5 0-.7-.2zM6.4 27c-.3-.5-.1-1.1.4-1.4.5-.3 1.1-.1 1.4.4.3.5.1 1.1-.4 1.4-.2.1-.3.1-.5.1-.4 0-.7-.2-.9-.5zm29.8.4c-.5-.3-.6-.9-.4-1.4.3-.5.9-.7 1.4-.4.5.3.6.9.4 1.4-.2.3-.5.5-.9.5-.2 0-.3-.1-.5-.1zM4.8 23.2c-.2-.5.1-1.1.7-1.2.5-.2 1.1.1 1.2.7.1.5-.1 1.1-.7 1.2h-.3c-.4 0-.8-.3-.9-.7zm33.2.6c-.5-.2-.8-.7-.7-1.2.2-.5.7-.8 1.3-.7.5.1.8.7.7 1.2-.1.4-.5.7-1 .7-.1.1-.2.1-.3 0zM4 19.1s0-.1 0 0c0-.1 0-.1 0 0 0-.6.4-1.1 1-1.1s1 .4 1.1.9c0 .5-.4 1-.9 1.1h-.1c-.6 0-1-.4-1.1-.9zm34.9.9c-.6 0-1-.5-1-1.1 0-.5.5-1 1.1-.9.5 0 1 .5.9 1.1 0 .5-.4.9-1 .9zm-1.1-4.8c-.1-.5.3-1.1.8-1.2.5-.1 1.1.3 1.2.8.1.6-.3 1.1-.8 1.2h-.2c-.5 0-1-.3-1-.8zM5.1 16c-.5-.1-.9-.6-.8-1.2.1-.5.6-.9 1.1-.8.6.1.9.6.8 1.2-.1.5-.5.8-1 .8h-.1zm31.6-4.3c-.2-.5 0-1.1.5-1.3.5-.2 1.1 0 1.3.5.2.5 0 1.1-.5 1.3-.1 0-.3.1-.4.1-.4 0-.7-.3-.9-.6zM6 12.1c-.5-.2-.7-.8-.5-1.3.2-.5.8-.7 1.3-.5.5.2.7.8.5 1.3-.2.4-.5.6-.9.6-.1 0-.3 0-.4-.1zm28.8-3.7c-.3-.4-.2-1 .2-1.4.4-.3 1.1-.2 1.4.2.3.4.2 1.1-.2 1.4-.2.1-.4.2-.6.2-.3 0-.6-.1-.8-.4zm-27 .2c-.4-.3-.5-.9-.2-1.4.3-.4 1-.5 1.4-.2.4.3.5 1 .2 1.4-.2.3-.5.4-.8.4-.2 0-.4 0-.6-.2zm24.5-2.8c-.4-.4-.5-1-.1-1.4.4-.4 1-.5 1.4-.1.4.4.5 1 .1 1.4-.2.2-.5.3-.8.3-.2 0-.4-.1-.6-.2zm-22-.2c-.4-.4-.3-1 .1-1.4.4-.4 1.1-.3 1.4.1.4.4.3 1-.1 1.4-.2.2-.4.3-.6.3-.3 0-.6-.2-.8-.4zm18.9-1.9c-.5-.2-.7-.9-.4-1.3.3-.5.8-.7 1.3-.4.5.3.7.9.4 1.3-.2.4-.5.6-.9.6-.1-.1-.3-.1-.4-.2zm-15.7-.5c-.2-.5 0-1.1.5-1.3.5-.3 1.1-.1 1.3.4.3.5 0 1.1-.4 1.3-.1.1-.3.1-.5.1-.4.1-.7-.1-.9-.5zm12.2-.8c-.5-.1-.9-.7-.8-1.2.1-.5.7-.9 1.2-.8.5.1.9.7.7 1.2-.1.5-.5.8-1 .8.1.1 0 0-.1 0zm-8.6-.7c-.1-.5.2-1.1.8-1.2.5-.1 1.1.2 1.2.7.1.5-.2 1.1-.7 1.2h-.2c-.6 0-1-.3-1.1-.7zM21 1c0-.6.4-1 1-1 .5 0 1 .4 1 1 0 .5-.5 1-1 1s-1-.5-1-1z" fill="#ffea00"/>
</svg>