<?xml version="1.0" encoding="utf-8"?>
<svg xmlns="http://www.w3.org/2000/svg" viewBox="0 0 39 39">
<path d="M.593 34.915v-24h38v24c0 2.21-1.79 4-4 4h-30c-2.21 0-4-1.79-4-4" fill="#cfd8dc"/>
<path fill="#eceff1" d="M.593 20.915h38v8h-38z"/>
<path fill="#b0bec5" d="M8.593 22.915h4v4h-4zM14.593 22.915h4v4h-4zM26.593 22.915h4v4h-4z"/>
<path fill="#90a4ae" d="M8.593 16.915h4v4h-4zM14.593 16.915h4v4h-4zM20.593 16.915h4v4h-4zM26.593 16.915h4v4h-4zM8.593 28.915h4v4h-4zM14.593 28.915h4v4h-4zM20.593 28.915h4v4h-4zM26.593 28.915h4v4h-4z"/>
<path fill="#f44336" d="M20.593 22.915h4v4h-4zM38.593 6.915v6h-38v-6c0-2.21 1.79-4 4-4h30c2.21 0 4 1.79 4 4"/>
<path d="M31.593 6.915c0 1.657-1.343 3-3 3s-3-1.343-3-3 1.343-3 3-3 3 1.343 3 3M13.593 6.915c0 1.657-1.343 3-3 3s-3-1.343-3-3 1.343-3 3-3 3 1.343 3 3" fill="#b71c1c"/>
<path d="M28.593-.085c-1.104 0-2 .896-2 2v5c0 1.104.896 2 2 2s2-.896 2-2v-5c0-1.104-.896-2-2-2M10.593-.085c-1.104 0-2 .896-2 2v5c0 1.104.896 2 2 2s2-.896 2-2v-5c0-1.104-.896-2-2-2" fill="#b0bec5"/>
</svg>