<svg xmlns="http://www.w3.org/2000/svg" viewBox="0 0 48 48">
  <path
    d="M17.8 18.102l-7.402 7.296L6.2 21.301 4 23.5l6.398 6.398L20 20.301zM17.8 5.102l-7.402 7.296L6.2 8.301 4 10.5l6.398 6.398L20 7.301zM24 22h20v4H24zM24 9h20v4H24z"
    fill="#2196f3"/>
  <path d="M24 35h20v4H24z" fill="#fff"/>
  <path fill="none" d="M-27.254-19.932H87.865v96H-27.254z"/>
  <path d="M10.636 44.923c3.398 0 6-2.601 6-6 0-3.398-2.602-6-6-6-3.399 0-6 2.602-6 6 0 3.399 2.601 6 6 6z"
        fill="#B53F5C"/>
</svg>
