<?xml version="1.0" encoding="utf-8"?>
<svg xmlns="http://www.w3.org/2000/svg" xmlns:xlink="http://www.w3.org/1999/xlink" version="1.1" x="0px" y="0px" viewBox="0 0 48 48" enable-background="new 0 0 48 48" xml:space="preserve" width="48" height="48" style="fill: rgb(39, 174, 96);">
<path fill="#03A9F4" d="M42.6,27.7c0.2-1.2,0.4-2.4,0.4-3.7c0-10.5-8.5-19-19-19c-1.3,0-2.5,0.1-3.7,0.4C18.7,4.5,16.9,4,15,4  C8.9,4,4,8.9,4,15c0,1.9,0.5,3.7,1.4,5.3C5.1,21.5,5,22.7,5,24c0,10.5,8.5,19,19,19c1.3,0,2.5-0.1,3.7-0.4c1.6,0.9,3.4,1.4,5.3,1.4  c6.1,0,11-4.9,11-11C44,31.1,43.5,29.3,42.6,27.7z"/>
<path fill="#FFFFFF" d="M24.6,36C18,36,15,32.7,15,30.2c0-1.3,0.9-2.2,2.2-2.2c2.8,0,2.1,4.1,7.4,4.1c2.7,0,4.2-1.5,4.2-3  c0-0.9-0.4-1.9-2.2-2.4l-5.9-1.5c-4.7-1.2-5.6-3.8-5.6-6.3c0-5.1,4.7-7,9.1-7c4.1,0,8.8,2.3,8.8,5.3c0,1.3-1,2.1-2.3,2.1  c-2.4,0-2-3.4-6.8-3.4c-2.4,0-3.8,1.1-3.8,2.7c0,1.6,1.9,2.1,3.6,2.5l4.4,1c4.8,1.1,6,3.9,6,6.6C34,32.9,30.9,36,24.6,36z"/>
</svg>