<svg xmlns="http://www.w3.org/2000/svg" viewBox="0 0 252 252">
  <g fill="none">
    <path d="M0 252V0h252v252z"/>
    <path
      d="M220.5 68.25a5.234 5.234 0 0 1-5.25 5.25H36.75a5.247 5.247 0 0 1-5.25-5.25v-31.5a5.247 5.247 0 0 1 5.25-5.25h178.5a5.234 5.234 0 0 1 5.25 5.25z"
      fill="#3f51b5"/>
    <path d="M31.5 57.75h189V220.5h-189z" fill="#bbdefb"/>
    <path
      d="M189 162.75H84v-10.5h105zm0-31.5H84v10.5h105zm0 42H84v10.5h105zm-126-31.5h10.5v-10.5H63zm0 21h10.5v-10.5H63zm0 21h10.5v-10.5H63zM63 78.75h126V105H63z"
      fill="#1976d2"/>
    <g fill="#ff3d00">
      <path
        d="M252 175.875L233.625 157.5l-28.875 28.875-28.875-28.875-18.375 18.375 28.875 28.875-28.875 28.875L175.875 252l28.875-28.875L233.625 252 252 233.625l-28.875-28.875z"/>
    </g>
  </g>
</svg>
