<svg xmlns="http://www.w3.org/2000/svg" viewBox="0 0 252 252" width="48" height="48">
    <path
      d="M220.5 68.25a5.234 5.234 0 0 1-5.25 5.25H36.75a5.247 5.247 0 0 1-5.25-5.25v-31.5a5.247 5.247 0 0 1 5.25-5.25h178.5a5.234 5.234 0 0 1 5.25 5.25z"
      fill="#3f51b5"/>
    <path d="M31.5 57.75h189V220.5h-189z" fill="#bbdefb"/>
    <path
      d="M189 162.75H84v-10.5h105zm0-31.5H84v10.5h105zm0 42H84v10.5h105zm-126-31.5h10.5v-10.5H63zm0 21h10.5v-10.5H63zm0 21h10.5v-10.5H63zM63 78.75h126V105H63z"
      fill="#1976d2"/>
    <path
      fill="#9c27b0"
      d="M252 173.25l-31.5-31.5v21h-5.25c-10.5 0-19.425 4.2-26.25 11.025-6.825-6.825-15.75-11.025-26.25-11.025h-5.25v-21l-31.5 31.5 31.5 31.5v-21h5.25c8.925 0 15.75 6.825 15.75 15.75V252h21v-52.5c0-8.925 6.825-15.75 15.75-15.75h5.25v21z"/>
</svg>
