<svg xmlns="http://www.w3.org/2000/svg" viewBox="0 0 252 252" width="48" height="48">
  <g fill="none">
    <path d="M0 252V0h252v252z"/>
    <path
      d="M220.5 68.25a5.234 5.234 0 0 1-5.25 5.25H36.75a5.247 5.247 0 0 1-5.25-5.25v-31.5a5.247 5.247 0 0 1 5.25-5.25h178.5a5.234 5.234 0 0 1 5.25 5.25z"
      fill="#3f51b5"/>
    <path d="M31.5 57.75h189V220.5h-189z" fill="#bbdefb"/>
    <path
      d="M189 162.75H84v-10.5h105zm0-31.5H84v10.5h105zm0 42H84v10.5h105zm-126-31.5h10.5v-10.5H63zm0 21h10.5v-10.5H63zm0 21h10.5v-10.5H63zM63 78.75h126V105H63z"
      fill="#1976d2"/>
    <g>
      <path
        d="M250.425 152.775l-14.7-14.7c-2.1-2.1-5.775-2.1-8.4 0L220.5 144.9l23.1 23.1 6.825-6.825c2.1-2.1 2.1-5.775 0-8.4"
        fill="#e57373"/>
      <path fill="#ff9800" d="M231.839 179.548l-64.594 64.593-23.016-23.016 64.594-64.593z"/>
      <path fill="#b0bec5" d="M208.66 156.592l11.504-11.512 23.023 23.01-11.505 11.511z"/>
      <path d="M144.375 221.55L136.5 252l30.45-7.875z" fill="#ffc107"/>
      <path d="M140.175 236.25L136.5 252l15.75-3.675z" fill="#37474f"/>
    </g>
  </g>
</svg>
