<?xml version="1.0" encoding="utf-8" ?>
<svg xmlns="http://www.w3.org/2000/svg" viewBox="0 0 39 39">
<path fill="#00bcd4" d="M32.542 15.034h6v24h-6zM24.542 23.034h6v16h-6zM16.542 19.034h6v20h-6zM8.542 29.034h6v10h-6zM.542 25.034h6v14h-6z"/>
<circle cx="3.542" cy="13.034" r="3" fill="#3f51b5"/>
<circle cx="11.542" cy="15.034" r="3" fill="#3f51b5"/>
<circle cx="19.542" cy="8.034" r="3" fill="#3f51b5"/>
<circle cx="27.542" cy="10.034" r="3" fill="#3f51b5"/>
<circle cx="35.542" cy="6.034" r="3" fill="#3f51b5"/>
<path fill="#3f51b5" d="M19.042 5.834l-8 7-7-1.7-1 3.8 9 2.3 8-7 7.7 1.9 8.7-4.3-1.8-3.6-7.3 3.7"/>
</svg>